<?xml version="1.0" standalone="no"?>
<!DOCTYPE svg PUBLIC "-//W3C//DTD SVG 20010904//EN"
 "http://www.w3.org/TR/2001/REC-SVG-20010904/DTD/svg10.dtd">
<svg version="1.0" xmlns="http://www.w3.org/2000/svg"
 width="48.000000pt" height="48.000000pt" viewBox="0 0 48.000000 48.000000"
 preserveAspectRatio="xMidYMid meet">

<g transform="translate(0.000000,48.000000) scale(0.100000,-0.100000)"
fill="#000000" stroke="none">
<path d="M160 467 c-49 -16 -133 -102 -148 -153 -28 -94 -8 -169 63 -239 101
-102 229 -102 330 0 102 101 102 229 0 330 -70 71 -152 91 -245 62z m70 -67
c0 9 3 10 13 1 8 -6 17 -8 20 -4 4 3 7 -6 7 -20 0 -24 -4 -27 -35 -27 -33 0
-35 2 -35 31 0 27 2 30 15 19 12 -10 15 -10 15 0z m89 -91 c24 -14 37 -17 44
-10 18 18 23 13 23 -26 1 -21 2 -56 4 -77 3 -32 -1 -43 -22 -61 -14 -12 -28
-31 -30 -41 -2 -11 -8 -19 -15 -19 -6 0 -15 -3 -19 -8 -13 -12 -24 -8 -24 10
0 15 -2 15 -14 -2 -13 -18 -14 -18 -20 2 -5 16 -18 22 -53 26 -67 7 -105 50
-102 115 1 26 -1 58 -5 70 -7 22 -6 23 13 13 16 -9 27 -7 53 9 45 27 122 27
167 -1z"/>
<path d="M188 209 c-36 -21 -16 -79 27 -79 44 0 63 60 26 80 -24 12 -31 12
-53 -1z"/>
<path d="M314 206 c-11 -28 0 -61 20 -61 27 0 44 30 30 53 -15 22 -43 27 -50
8z"/>
<path d="M276 153 c-11 -11 -6 -23 9 -23 8 0 15 4 15 9 0 13 -16 22 -24 14z"/>
</g>
</svg>
